HIERARCHY
ROOT Hips
{
	OFFSET 0.00000 0.00000 0.00000
	CHANNELS 6 Xposition Yposition Zposition Zrotation Yrotation Xrotation 
	JOINT LHipJoint
	{
		OFFSET 0 0 0
		CHANNELS 3 Zrotation Yrotation Xrotation
		JOINT LeftHip
		{
			OFFSET 1.58895 -1.83665 0.71753
			CHANNELS 3 Zrotation Yrotation Xrotation
			JOINT LeftKnee
			{
				OFFSET 2.50528 -6.88321 0.00000
				CHANNELS 3 Zrotation Yrotation Xrotation
				JOINT LeftAnkle
				{
					OFFSET 2.63244 -7.23257 0.00000
					CHANNELS 3 Zrotation Yrotation Xrotation
					JOINT LeftToe
					{
						OFFSET 0.23691 -0.65090 1.72750
						CHANNELS 3 Zrotation Yrotation Xrotation
						End Site
						{
							OFFSET 0.00000 -0.00000 0.92561
						}
					}
				}
			}
		}
	}
	JOINT RHipJoint
	{
		OFFSET 0 0 0
		CHANNELS 3 Zrotation Yrotation Xrotation
		JOINT RightHip
		{
			OFFSET -1.51435 -1.83665 0.71753
			CHANNELS 3 Zrotation Yrotation Xrotation
			JOINT RightKnee
			{
				OFFSET -2.54551 -6.99375 0.00000
				CHANNELS 3 Zrotation Yrotation Xrotation
				JOINT RightAnkle
				{
					OFFSET -2.66027 -7.30903 0.00000
					CHANNELS 3 Zrotation Yrotation Xrotation
					JOINT RightToe
					{
						OFFSET -0.22981 -0.63138 2.03959
						CHANNELS 3 Zrotation Yrotation Xrotation
						End Site
						{
							OFFSET -0.00000 -0.00000 1.07060
						}
					}
				}
			}
		}
	}
	JOINT lowerback
	{
		OFFSET 0 0 0
		CHANNELS 3 Zrotation Yrotation Xrotation
		JOINT Chest
		{
			OFFSET -0.02651 1.86275 -0.11152
			CHANNELS 3 Zrotation Yrotation Xrotation
			JOINT Chest2
			{
				OFFSET 0.01019 1.86224 0.04087
				CHANNELS 3 Zrotation Yrotation Xrotation
				JOINT lowerneck
				{
					OFFSET 0 0 0
					CHANNELS 3 Zrotation Yrotation Xrotation
					JOINT Neck
					{
						OFFSET -0.01926 1.80512 0.08867
						CHANNELS 3 Zrotation Yrotation Xrotation
						JOINT Head
						{
							OFFSET 0.05516 1.76451 -0.38475
							CHANNELS 3 Zrotation Yrotation Xrotation
							End Site
							{
								OFFSET 0.01592 1.82587 -0.14001
							}
						}
					}
				}
				JOINT LeftCollar
				{
					OFFSET 0 0 0
					CHANNELS 3 Zrotation Yrotation Xrotation
					JOINT LeftShoulder
					{
						OFFSET 3.47116 1.51376 0.14491
CHANNELS 3 Zrotation Xrotation Yrotation
						JOINT LeftElbow
						{
OFFSET 0 -4.780950 0.000000
CHANNELS 3 Zrotation Xrotation Yrotation
							JOINT LeftWrist
							{
OFFSET 0 -3.586150 -0.000000
CHANNELS 3 Zrotation Xrotation Yrotation
								JOINT lhand
								{
									OFFSET 0 0 0
CHANNELS 3 Zrotation Xrotation Yrotation
									JOINT LFingers
									{
OFFSET 0 -0.659810 0.000000
CHANNELS 3 Zrotation Xrotation Yrotation
										End Site
										{
OFFSET 0 -0.531960 0.000000
										}
									}
								}
								JOINT LThumb
								{
OFFSET 0 0.000000 0.000000
CHANNELS 3 Zrotation Xrotation Yrotation
									End Site
									{
OFFSET 0 -0.540080 0.540080
									}
								}
							}
						}
					}
				}
				JOINT RightCollar
				{
					OFFSET 0 0 0
					CHANNELS 3 Zrotation Yrotation Xrotation
					JOINT RightShoulder
					{
						OFFSET -3.31725 1.61216 0.35156
CHANNELS 3 Zrotation Xrotation Yrotation
						JOINT RightElbow
						{
OFFSET 0 -4.489130 0.000000
CHANNELS 3 Zrotation Xrotation Yrotation
							JOINT RightWrist
							{
OFFSET 0 -3.705100 0.000000
CHANNELS 3 Zrotation Xrotation Yrotation
								JOINT rhand
								{
									OFFSET 0 0 0
CHANNELS 3 Zrotation Xrotation Yrotation
									JOINT RFingers
									{
OFFSET 0 -0.449140 0.000000
CHANNELS 3 Zrotation Xrotation Yrotation
										End Site
										{
OFFSET 0 -0.362110 0.000000
										}
									}
								}
								JOINT RThumb
								{
OFFSET 0 0.000000 0.000000
CHANNELS 3 Zrotation Xrotation Yrotation
									End Site
									{
OFFSET 0 -0.367630 0.367630
									}
								}
							}
						}
					}
				}
			}
		}
	}
}
MOTION
Frames: 16
Frame Time: .0083333
-0.8538 18.7624 4.3725 -1.7239 4.2142 4.1164 0.0000 0.0000 0.0000 -11.4173 -11.1177 -7.3723 1.4489 7.6090 21.5327 1.1075 0.6037 -20.1192 8.3084 -16.3414 -53.6659 0.0000 0.0000 0.0000 0.0000 0.0000 0.0000 0.0000 0.0000 0.0000 -0.0000 -0.0000 0.0000 -0.0000 -0.0000 0.0000 -2.8023 1.3026 8.7529 -1.1506 1.3564 -1.4043 0.1784 0.7463 -6.4283 -5.6005 -5.8380 -15.7262 9.0171 -8.9573 21.8395 2.8819 -3.5923 10.2483 0.0000 -0.0000 0.0000 16.7581 -10.7338 -57.8368 137.0054 -49.7474 99.3034 19.326 -51.622 18.418 0.0 0.0 0.0 -7.1250 0.0 0.0 -5.7327 10.6186 -4.6019 0.0000 -0.0000 0.0000 -60.873 -20.4736 22.0962 -84.3200 -59.8777 -55.083 -51.7688 76.968 34.4779 0.0 0.0 0.0 7.1250 0.0 -0.0 -39.1616 75.0602 28.7027
-0.8620 18.7638 4.3775 -1.8148 4.3843 4.1440 0.0000 0.0000 0.0000 -11.2738 -11.2039 -7.3885 1.4444 7.5975 21.4982 1.0995 0.5606 -20.0312 8.3107 -16.3431 -53.6742 0.0000 0.0000 0.0000 0.0000 0.0000 0.0000 0.0000 0.0000 0.0000 -0.0000 -0.0000 0.0000 -0.0000 -0.0000 0.0000 -2.6184 1.2683 8.7485 -1.2141 1.3255 -1.4789 0.0119 0.7241 -6.4978 -5.5927 -5.9281 -15.6588 9.1328 -9.1139 21.7748 2.8993 -3.6544 10.2319 0.0000 -0.0000 0.0000 16.8894 -10.8295 -57.9677 136.8134 -49.8485 99.1567 19.1781 -51.4606 18.3687 0.0 0.0 0.0 -7.1250 0.0 0.0 -5.8267 10.6885 -4.6698 0.0000 -0.0000 0.0000 -62.0817 -20.4693 19.2377 -83.4530 -59.8374 -54.3333 -51.5992 77.0078 35.3132 0.0 0.0 0.0 7.1250 0.0 -0.0 -39.7297 75.8898 29.7932
-0.8712 18.7660 4.3812 -1.8979 4.5028 4.1974 0.0000 0.0000 0.0000 -11.1486 -11.3870 -7.3794 1.4385 7.5828 21.4540 1.0972 0.6785 -20.0547 8.3322 -16.3582 -53.7506 0.0000 0.0000 0.0000 0.0000 0.0000 0.0000 0.0000 0.0000 0.0000 -0.0000 -0.0000 0.0000 -0.0000 -0.0000 0.0000 -2.4834 1.2511 8.7866 -1.2469 1.3115 -1.5914 -0.0992 0.7131 -6.6342 -5.6850 -6.0359 -15.5777 9.2633 -9.2771 21.7466 2.9382 -3.7259 10.2324 0.0000 -0.0000 0.0000 16.8595 -10.8636 -58.0628 136.6544 -49.9318 99.0351 18.7731 -51.2424 18.2755 0.0 0.0 0.0 -7.1250 0.0 0.0 -6.0868 10.8356 -4.8623 0.0000 -0.0000 0.0000 -63.4168 -20.6886 16.3213 -82.6353 -59.7941 -53.6264 -51.5025 76.622 35.3745 0.0 0.0 0.0 7.1250 0.0 -0.0 -39.5125 75.9313 29.6521
-0.8801 18.7693 4.3849 -1.9681 4.5731 4.2823 0.0000 0.0000 0.0000 -11.0397 -11.5948 -7.3806 1.4325 7.5676 21.4083 1.1013 0.8279 -20.1492 8.3361 -16.3610 -53.7645 0.0000 0.0000 0.0000 0.0000 0.0000 0.0000 0.0000 0.0000 0.0000 -0.0000 -0.0000 0.0000 -0.0000 -0.0000 0.0000 -2.3653 1.2710 8.8276 -1.2809 1.3440 -1.7510 -0.2100 0.7257 -6.8238 -5.6983 -6.1585 -15.4092 9.3300 -9.4718 21.7500 2.9390 -3.8144 10.2231 0.0000 -0.0000 0.0000 16.7282 -10.8191 -58.211 136.5202 -50.0016 98.9324 18.6302 -51.1559 18.1835 0.0 0.0 0.0 -7.1250 0.0 0.0 -6.1758 10.9485 -4.9198 0.0000 -0.0000 0.0000 -64.7662 -20.9336 13.6572 -82.4704 -59.7847 -53.4839 -51.9278 76.5571 35.9275 0.0 0.0 0.0 7.1250 0.0 -0.0 -41.6419 76.5924 31.8858
-0.8889 18.7720 4.3877 -2.0775 4.5831 4.3805 0.0000 0.0000 0.0000 -10.8788 -11.6920 -7.4397 1.4274 7.5546 21.3693 1.1058 0.9417 -20.2337 8.3436 -16.3663 -53.7911 0.0000 0.0000 0.0000 0.0000 0.0000 0.0000 0.0000 0.0000 0.0000 -0.0000 -0.0000 0.0000 -0.0000 -0.0000 0.0000 -2.1934 1.2918 8.6610 -1.2927 1.3959 -1.7656 -0.3224 0.7438 -6.7399 -5.7517 -6.2604 -15.4073 9.5228 -9.6513 21.7371 2.9894 -3.8802 10.2484 -0.0000 -0.0000 0.0000 16.5694 -10.9643 -58.2488 136.3614 -50.0838 98.8107 18.9739 -51.2292 18.1999 0.0 0.0 0.0 -7.1250 0.0 0.0 -5.9513 10.8892 -4.7463 -0.0000 -0.0000 0.0000 -66.2381 -21.6986 10.6887 -81.8835 -59.7496 -52.9768 -51.8672 75.839 35.6824 0.0 0.0 0.0 7.1250 0.0 -0.0 -41.0858 76.3293 31.2257
-0.8968 18.7749 4.3890 -2.2397 4.5465 4.4570 0.0000 0.0000 0.0000 -10.6699 -11.7555 -7.4833 1.4234 7.5445 21.3390 1.1107 1.0966 -20.3396 8.3812 -16.3926 -53.9245 0.0000 0.0000 0.0000 0.0000 0.0000 0.0000 0.0000 0.0000 0.0000 -0.0000 -0.0000 0.0000 -0.0000 -0.0000 0.0000 -1.9242 1.3013 8.5728 -1.2766 1.4424 -1.7632 -0.4610 0.7562 -6.6805 -5.9628 -6.3474 -15.5164 9.8129 -9.7902 21.7253 3.1042 -3.9258 10.3062 -0.0000 0.0000 0.0000 16.4014 -11.1033 -58.1828 136.2264 -50.1533 98.7071 19.2017 -51.3065 18.2759 0.0 0.0 0.0 -7.1250 0.0 0.0 -5.8061 10.782 -4.642 -0.0000 0.0000 0.0000 -67.7842 -22.891 7.929 -81.2994 -59.712 -52.4724 -51.6183 75.2193 35.9884 0.0 0.0 0.0 7.1250 0.0 -0.0 -40.7248 76.5891 31.1377
-0.9036 18.7795 4.3902 -2.3695 4.4388 4.5169 0.0000 0.0000 0.0000 -10.5212 -11.7678 -7.5005 1.4203 7.5367 21.3154 1.1115 1.3670 -20.4568 8.4546 -16.4437 -54.1841 0.0000 0.0000 0.0000 0.0000 0.0000 0.0000 0.0000 0.0000 0.0000 -0.0000 -0.0000 0.0000 -0.0000 -0.0000 0.0000 -1.6197 1.3525 8.5480 -1.3091 1.5422 -1.8042 -0.6803 0.7927 -6.7010 -6.0422 -6.4508 -15.5468 9.9196 -9.9394 21.6891 3.1316 -3.9889 10.3238 0.0000 -0.0000 0.0000 16.2721 -11.1824 -58.1716 136.1106 -50.2127 98.6181 19.1429 -51.3241 18.297 0.0 0.0 0.0 -7.1250 0.0 0.0 -5.8458 10.7674 -4.6758 0.0000 -0.0000 0.0000 -69.2698 -24.2175 5.4616 -80.6636 -59.668 -51.9234 -51.3668 74.1581 35.6947 0.0 0.0 0.0 7.1250 0.0 -0.0 -39.5154 76.2316 29.8853
-0.9108 18.7836 4.3908 -2.4565 4.2380 4.5373 0.0000 0.0000 0.0000 -10.4418 -11.7413 -7.4557 1.4162 7.5262 21.2839 1.1129 1.7145 -20.6170 8.5296 -16.4953 -54.4487 0.0000 0.0000 0.0000 0.0000 0.0000 0.0000 0.0000 0.0000 0.0000 -0.0000 -0.0000 0.0000 -0.0000 -0.0000 0.0000 -1.3157 1.4354 8.5768 -1.3776 1.6803 -1.8638 -0.9447 0.8470 -6.7698 -5.9549 -6.5274 -15.5443 9.8580 -10.0537 21.6738 3.0776 -4.0415 10.3201 -0.0000 0.0000 0.0000 16.1788 -11.1777 -58.1679 136.0177 -50.2601 98.5467 19.1457 -51.3639 18.4001 0.0 0.0 0.0 -7.1250 0.0 0.0 -5.8496 10.6599 -4.6918 -0.0000 0.0000 0.0000 -70.6734 -25.6916 3.2371 -79.9974 -59.6185 -51.3486 -51.5817 73.5144 35.0902 0.0 0.0 0.0 7.1250 0.0 -0.0 -39.3833 75.6546 29.3363
-0.9176 18.7867 4.3901 -2.5334 3.9704 4.5419 0.0000 0.0000 0.0000 -10.3810 -11.7738 -7.3376 1.4084 7.5063 21.2242 1.1255 2.0359 -20.8706 8.5545 -16.5123 -54.5363 0.0000 0.0000 0.0000 0.0000 0.0000 0.0000 0.0000 0.0000 0.0000 -0.0000 -0.0000 0.0000 -0.0000 -0.0000 0.0000 -1.0039 1.5141 8.6108 -1.4386 1.8149 -1.9042 -1.2050 0.8991 -6.8194 -5.8849 -6.5587 -15.5563 9.8390 -10.1068 21.6309 3.0503 -4.0631 10.3070 -0.0000 -0.0000 0.0000 16.1106 -11.1396 -58.0794 135.9577 -50.2906 98.5006 19.1938 -51.4745 18.5714 0.0 0.0 0.0 -7.1250 0.0 0.0 -5.8277 10.4759 -4.696 -0.0000 -0.0000 0.0000 -72.0729 -27.3857 1.4934 -79.4669 -59.5766 -50.8911 -51.3899 73.3738 35.2829 0.0 0.0 0.0 7.1250 0.0 -0.0 -39.0473 75.8103 29.1895
-0.9238 18.7904 4.3882 -2.5362 3.6353 4.5727 0.0000 0.0000 0.0000 -10.4180 -11.9123 -7.1611 1.3970 7.4773 21.1374 1.1434 2.4811 -21.2331 8.5381 -16.5011 -54.4784 0.0000 0.0000 0.0000 0.0000 0.0000 0.0000 0.0000 0.0000 0.0000 -0.0000 -0.0000 0.0000 -0.0000 -0.0000 0.0000 -0.8047 1.5986 8.5425 -1.4755 1.9491 -1.8867 -1.3718 0.9564 -6.7520 -5.8352 -6.5888 -15.6154 9.8067 -10.1450 21.5618 3.0225 -4.0801 10.2923 0.0000 0.0000 0.0000 16.0028 -11.1896 -57.9272 135.8756 -50.3323 98.4374 19.1568 -51.5473 18.628 0.0 0.0 0.0 -7.1250 0.0 0.0 -5.8551 10.4219 -4.7248 0.0000 0.0000 0.0000 -73.626 -29.3297 -0.1087 -78.9536 -59.5339 -50.4485 -51.4543 72.7863 34.8675 0.0 0.0 0.0 7.1250 0.0 -0.0 -38.7162 75.3927 28.6093
-0.9300 18.7946 4.3864 -2.4550 3.2293 4.6064 0.0000 0.0000 0.0000 -10.5688 -12.0468 -6.9431 1.3840 7.4438 21.0369 1.1608 3.0115 -21.6414 8.5087 -16.4809 -54.3749 0.0000 0.0000 0.0000 0.0000 0.0000 0.0000 0.0000 0.0000 0.0000 -0.0000 -0.0000 0.0000 -0.0000 -0.0000 0.0000 -0.8139 1.6693 8.2830 -1.4264 2.0522 -1.7317 -1.3163 1.0102 -6.4398 -5.7180 -6.5819 -15.8342 9.6016 -10.0979 21.4959 2.9310 -4.0662 10.2869 0.0000 -0.0000 0.0000 15.7751 -11.4198 -57.6055 135.7601 -50.3906 98.3484 19.1845 -51.5538 18.5321 0.0 0.0 0.0 -7.1250 0.0 0.0 -5.8316 10.5179 -4.6942 0.0000 -0.0000 0.0000 -75.354 -31.4554 -1.3463 -78.6413 -59.5068 -50.1794 -51.5089 72.7338 34.8867 0.0 0.0 0.0 7.1250 0.0 -0.0 -38.9034 75.4256 28.7816
-0.9367 18.7978 4.3870 -2.3857 2.7893 4.6509 0.0000 0.0000 0.0000 -10.6861 -11.9512 -6.8107 1.3694 7.4062 20.9244 1.1690 3.3961 -21.9064 8.4834 -16.4636 -54.2859 0.0000 0.0000 0.0000 0.0000 0.0000 0.0000 0.0000 0.0000 0.0000 -0.0000 -0.0000 0.0000 -0.0000 -0.0000 0.0000 -0.3577 1.8229 8.5484 -1.6776 2.2840 -1.9758 -1.8850 1.0978 -6.8189 -5.4709 -6.6472 -15.8262 9.5007 -10.2568 21.7418 2.8327 -4.1235 10.3686 -0.0000 -0.0000 0.0000 16.0414 -11.1542 -57.7138 135.7957 -50.3726 98.3759 19.2679 -51.7103 18.4183 0.0 0.0 0.0 -7.1250 0.0 0.0 -5.7707 10.6258 -4.6318 -0.0000 -0.0000 0.0000 -76.1365 -32.9438 -1.5072 -78.8253 -59.5229 -50.3379 -51.2819 72.2189 34.9227 0.0 0.0 0.0 7.1250 0.0 -0.0 -38.2716 75.4093 28.273
-0.9430 18.7996 4.3901 -2.3223 2.3434 4.7051 0.0000 0.0000 0.0000 -10.7902 -11.7686 -6.7224 1.3554 7.3696 20.8151 1.1738 3.7410 -22.1283 8.4677 -16.4527 -54.2304 0.0000 0.0000 0.0000 0.0000 0.0000 0.0000 0.0000 0.0000 0.0000 -0.0000 -0.0000 0.0000 -0.0000 -0.0000 0.0000 -0.0593 1.9245 8.5498 -1.8050 2.4434 -2.1011 -2.2129 1.1596 -6.9306 -5.2278 -6.6255 -15.7550 9.3442 -10.2591 21.8052 2.7392 -4.1228 10.3548 0.0000 0.0000 0.0000 16.2318 -10.9156 -57.588 135.8829 -50.3285 98.443 19.2349 -51.8559 18.3432 0.0 0.0 0.0 -7.1250 0.0 0.0 -5.7881 10.7079 -4.6362 0.0000 0.0000 0.0000 -77.1827 -34.9468 -1.4224 -78.6182 -59.5048 -50.1595 -51.1459 71.7572 34.9017 0.0 0.0 0.0 7.1250 0.0 -0.0 -37.8436 75.3545 27.8967
-0.9481 18.8013 4.3944 -2.2418 1.9006 4.7553 0.0000 0.0000 0.0000 -10.9376 -11.7696 -6.5597 1.3443 7.3405 20.7283 1.1987 4.1480 -22.5583 8.4537 -16.4430 -54.1809 0.0000 0.0000 0.0000 0.0000 0.0000 0.0000 0.0000 0.0000 0.0000 -0.0000 -0.0000 0.0000 -0.0000 -0.0000 0.0000 0.1344 1.9873 8.3858 -1.8479 2.5475 -2.1332 -2.3749 1.2026 -6.8566 -4.9695 -6.5616 -15.7033 9.1152 -10.1756 21.7752 2.6293 -4.0918 10.2984 0.0000 -0.0000 0.0000 16.2395 -10.7579 -57.3869 135.8952 -50.3223 98.4525 19.2606 -51.9208 18.3195 0.0 0.0 0.0 -7.1250 0.0 0.0 -5.7700 10.7293 -4.619 0.0000 -0.0000 0.0000 -77.7991 -36.5266 -0.8145 -79.1692 -59.5521 -50.6344 -51.3136 71.5512 34.6011 0.0 0.0 0.0 7.1250 0.0 -0.0 -37.9781 75.0797 27.795
-0.9535 18.8020 4.3992 -2.2281 1.4970 4.7906 0.0000 0.0000 0.0000 -11.0083 -11.8246 -6.3788 1.3352 7.3166 20.6569 1.2261 4.5470 -23.0085 8.4591 -16.4468 -54.2001 0.0000 0.0000 0.0000 0.0000 0.0000 0.0000 0.0000 0.0000 0.0000 -0.0000 -0.0000 0.0000 -0.0000 -0.0000 0.0000 0.3734 2.0315 8.2228 -1.8622 2.6330 -2.1667 -2.5294 1.2354 -6.7840 -4.6034 -6.4902 -15.7137 8.7541 -10.0839 21.8418 2.4556 -4.0581 10.2746 0.0000 -0.0000 0.0000 16.1667 -10.6684 -57.255 135.8252 -50.3577 98.3986 19.4049 -51.9878 18.327 0.0 0.0 0.0 -7.1250 0.0 0.0 -5.6759 10.7032 -4.546 0.0000 -0.0000 0.0000 -78.1366 -37.8285 0.3116 -79.9073 -59.6116 -51.2709 -51.5135 71.4367 34.3988 0.0 0.0 0.0 7.1250 0.0 -0.0 -38.3184 74.916 27.9354
-0.9583 18.8019 4.4046 -2.2334 1.1537 4.8002 0.0000 0.0000 0.0000 -11.0394 -11.7261 -6.2557 1.3273 7.2959 20.5949 1.2357 4.8196 -23.2424 8.4874 -16.4663 -54.2998 0.0000 0.0000 0.0000 0.0000 0.0000 0.0000 0.0000 0.0000 0.0000 -0.0000 -0.0000 0.0000 -0.0000 -0.0000 0.0000 0.6294 2.0550 8.1123 -1.8813 2.6911 -2.2332 -2.6981 1.2528 -6.7761 -4.1649 -6.4006 -15.6861 8.3381 -9.9752 21.9403 2.2546 -4.0172 10.2473 -0.0000 0.0000 0.0000 16.1276 -10.5072 -57.1594 135.7994 -50.3708 98.3787 19.4276 -52.003 18.3284 0.0 0.0 0.0 -7.1250 0.0 0.0 -5.6611 10.6989 -4.5345 -0.0000 0.0000 0.0000 -78.1433 -38.939 1.9772 -80.5560 -59.6603 -51.8306 -51.9474 71.5509 34.2381 0.0 0.0 0.0 7.1250 0.0 -0.0 -39.3842 74.8518 28.7145
